<svg width="512" height="512" viewBox="0 0 512 512" fill="none" xmlns="http://www.w3.org/2000/svg">
<path d="M0 179.033L81.1836 324.705C83.1737 328.276 82.997 332.661 80.726 336.06L16.3404 432.433L236.936 396.627L125.277 283.698L0 179.033Z" fill="#FF4833"/>
<path fill-rule="evenodd" clip-rule="evenodd" d="M256 415.907L236.936 396.627L16.3404 432.433L134.149 440.038C139.881 440.408 144.34 445.165 144.34 450.909V465.25C144.34 473.776 153.694 478.998 160.952 474.522L256 415.907Z" fill="#FF4833"/>
<path d="M256 415.907L266.072 31.3756C266.342 21.0456 253.423 16.1787 246.81 24.1199L141.297 150.841C138.247 154.504 137.932 159.724 140.52 163.726L167.027 204.727C172.451 213.117 164.663 223.773 155.022 221.154L0 179.033L125.277 283.698L236.936 396.627L256 415.907Z" fill="#FF4833"/>
<path d="M0 179.033L81.1836 324.705C83.1737 328.276 82.997 332.661 80.726 336.06L16.3404 432.433L236.936 396.627L125.277 283.698L0 179.033Z" fill="#FF6333"/>
<path fill-rule="evenodd" clip-rule="evenodd" d="M256 415.907L236.936 396.627L16.3404 432.433L134.149 440.038C139.881 440.408 144.34 445.165 144.34 450.909V465.25C144.34 473.776 153.694 478.998 160.952 474.522L256 415.907Z" fill="#FF6333"/>
<path fill-rule="evenodd" clip-rule="evenodd" d="M256 415.907L236.936 396.627L16.3404 432.433L134.149 440.038C139.881 440.408 144.34 445.165 144.34 450.909V465.25C144.34 473.776 153.694 478.998 160.952 474.522L256 415.907Z" fill="#FF8133"/>
<path d="M512 179.033L430.816 324.705C428.826 328.276 429.003 332.661 431.274 336.06L495.66 432.433L275.064 396.627L386.723 283.698L512 179.033Z" fill="#FF4833"/>
<path fill-rule="evenodd" clip-rule="evenodd" d="M256 415.907L275.064 396.627L495.66 432.433L377.851 440.038C372.119 440.408 367.66 445.165 367.66 450.909V465.25C367.66 473.776 358.306 478.998 351.048 474.522L256 415.907Z" fill="#FF4833"/>
<path d="M256 415.907L245.928 31.3756C245.658 21.0456 258.577 16.1787 265.19 24.1199L370.703 150.841C373.753 154.504 374.068 159.724 371.48 163.726L344.973 204.727C339.549 213.117 347.337 223.773 356.978 221.154L512 179.033L386.723 283.698L275.064 396.627L256 415.907Z" fill="#FF4833"/>
<path d="M512 179.033L430.816 324.705C428.826 328.276 429.003 332.661 431.274 336.06L495.66 432.433L275.064 396.627L386.723 283.698L512 179.033Z" fill="#FF6333"/>
<path fill-rule="evenodd" clip-rule="evenodd" d="M256 415.907L275.064 396.627L495.66 432.433L377.851 440.038C372.119 440.408 367.66 445.165 367.66 450.909V465.25C367.66 473.776 358.306 478.998 351.048 474.522L256 415.907Z" fill="#FF6333"/>
<path fill-rule="evenodd" clip-rule="evenodd" d="M256 415.907L275.064 396.627L495.66 432.433L377.851 440.038C372.119 440.408 367.66 445.165 367.66 450.909V465.25C367.66 473.776 358.306 478.998 351.048 474.522L256 415.907Z" fill="#FF8133"/>
<path d="M256 21.7872L266.77 506.432C266.838 509.487 264.38 512 261.324 512H250.676C247.62 512 245.162 509.487 245.23 506.432L256 21.7872Z" fill="url(#paint0_linear_3_2)"/>
<defs>
<linearGradient id="paint0_linear_3_2" x1="256" y1="21.7872" x2="256" y2="512" gradientUnits="userSpaceOnUse">
<stop offset="0.0625" stop-color="#DF3F2D" stop-opacity="0"/>
<stop offset="0.390625" stop-color="#DF3F2D"/>
</linearGradient>
</defs>
</svg>
